<svg height="100%" width="100%" id="svg" viewBox="0 0 1440 600" xmlns="http://www.w3.org/2000/svg" class="transition duration-300 ease-in-out delay-150"><defs><linearGradient id="gradient"><stop offset="5%" stop-color="#002bdc88"></stop><stop offset="95%" stop-color="#32ded488"></stop></linearGradient></defs><path d="M 0,600 C 0,600 0,200 0,200 C 72.03076923076924,224.44871794871796 144.06153846153848,248.89743589743588 233,240 C 321.9384615384615,231.10256410256412 427.78461538461545,188.85897435897434 504,201 C 580.2153846153846,213.14102564102566 626.8,279.6666666666667 694,266 C 761.2,252.33333333333331 849.0153846153846,158.47435897435895 935,143 C 1020.9846153846154,127.52564102564105 1105.1384615384616,190.43589743589746 1189,213 C 1272.8615384615384,235.56410256410254 1356.4307692307693,217.78205128205127 1440,200 C 1440,200 1440,600 1440,600 Z" stroke="none" stroke-width="0" fill="url(#gradient)" class="transition-all duration-300 ease-in-out delay-150"></path><defs><linearGradient id="gradient"><stop offset="5%" stop-color="#002bdcff"></stop><stop offset="95%" stop-color="#32ded4ff"></stop></linearGradient></defs><path d="M 0,600 C 0,600 0,400 0,400 C 98.32564102564103,375.8307692307692 196.65128205128207,351.66153846153844 280,343 C 363.34871794871793,334.33846153846156 431.7205128205128,341.1846153846153 509,358 C 586.2794871794872,374.8153846153847 672.4666666666667,401.6 758,397 C 843.5333333333333,392.4 928.4128205128204,356.41538461538465 999,359 C 1069.5871794871796,361.58461538461535 1125.8820512820512,402.73846153846154 1197,416 C 1268.1179487179488,429.26153846153846 1354.0589743589744,414.63076923076926 1440,400 C 1440,400 1440,600 1440,600 Z" stroke="none" stroke-width="0" fill="url(#gradient)" class="transition-all duration-300 ease-in-out delay-150"></path></svg>